<svg width="18" height="19" viewBox="0 0 18 19" fill="none" xmlns="http://www.w3.org/2000/svg">
<path d="M5.21053 5.63158C5.21053 3.54189 6.91032 1.84211 9 1.84211C11.0897 1.84211 12.7895 3.54189 12.7895 5.63158C12.7895 7.72126 11.0897 9.42105 9 9.42105C6.91032 9.42105 5.21053 7.72126 5.21053 5.63158Z" fill="black"/>
<path d="M9 10.2632C12.6779 10.2632 15.7171 13.216 16.1141 17H1.88589C2.28295 13.216 5.32211 10.2632 9 10.2632Z" fill="black"/>
<path d="M5.21053 5.63158C5.21053 3.54189 6.91032 1.84211 9 1.84211C11.0897 1.84211 12.7895 3.54189 12.7895 5.63158C12.7895 7.72126 11.0897 9.42105 9 9.42105C6.91032 9.42105 5.21053 7.72126 5.21053 5.63158Z" stroke="black"/>
<path d="M9 10.2632C12.6779 10.2632 15.7171 13.216 16.1141 17H1.88589C2.28295 13.216 5.32211 10.2632 9 10.2632Z" stroke="black"/>
</svg>
