<svg width="23" height="23" viewBox="0 0 23 23" fill="none" xmlns="http://www.w3.org/2000/svg">
<path fill-rule="evenodd" clip-rule="evenodd" d="M0 8.70833C0 3.89885 3.89885 0 8.70833 0C13.5178 0 17.4167 3.89885 17.4167 8.70833C17.4167 10.2122 17.0323 11.6248 16.3619 12.856L22.756 19.25L19.25 22.756L12.856 16.3619C11.6248 17.0323 10.2122 17.4167 8.70833 17.4167C3.89885 17.4167 0 13.5178 0 8.70833ZM8.70833 4.95833C6.64226 4.95833 4.95833 6.64226 4.95833 8.70833C4.95833 10.7744 6.64226 12.4583 8.70833 12.4583C10.7744 12.4583 12.4583 10.7744 12.4583 8.70833C12.4583 6.64226 10.7744 4.95833 8.70833 4.95833Z" fill="black"/>
</svg>
