<svg width="345" height="345" viewBox="0 0 345 345" fill="none" xmlns="http://www.w3.org/2000/svg">
<path d="M86.25 288.753H123.773C128.665 288.753 133.528 289.335 138.27 290.5L177.918 300.134C186.521 302.23 195.482 302.434 204.175 300.745L248.012 292.217C259.592 289.961 270.244 284.416 278.592 276.295L309.607 246.125C318.464 237.524 318.464 223.566 309.607 214.951C301.633 207.193 289.005 206.32 279.984 212.898L243.837 239.27C238.661 243.054 232.362 245.092 225.884 245.092H190.979L213.197 245.091C225.719 245.091 235.863 235.223 235.863 223.041V218.632C235.863 208.517 228.786 199.697 218.702 197.252L184.411 188.913C178.83 187.559 173.115 186.875 167.37 186.875C153.501 186.875 128.396 198.358 128.396 198.358L86.25 215.983M28.75 209.875L28.75 293.25C28.75 301.301 28.75 305.326 30.3168 308.401C31.695 311.106 33.8941 313.305 36.5989 314.683C39.6739 316.25 43.6992 316.25 51.75 316.25H63.25C71.3007 316.25 75.3261 316.25 78.4011 314.683C81.1059 313.305 83.305 311.106 84.6832 308.401C86.25 305.326 86.25 301.301 86.25 293.25V209.875C86.25 201.824 86.25 197.799 84.6832 194.724C83.305 192.019 81.1059 189.82 78.4011 188.442C75.3261 186.875 71.3008 186.875 63.25 186.875H51.75C43.6992 186.875 39.6739 186.875 36.5989 188.442C33.8941 189.82 31.695 192.019 30.3168 194.724C28.75 197.799 28.75 201.824 28.75 209.875ZM247.126 51.6389C238.547 33.6865 218.767 24.1759 199.531 33.3556C180.295 42.5353 172.1 64.305 180.154 83.4158C185.131 95.2268 199.392 118.163 209.56 133.961C213.317 139.799 215.195 142.717 217.939 144.425C220.293 145.889 223.239 146.679 226.009 146.587C229.239 146.48 232.325 144.892 238.498 141.715C255.203 133.117 279.021 120.384 289.237 112.644C305.767 100.121 309.861 77.1016 297.486 59.6024C285.11 42.1032 263.532 40.3813 247.126 51.6389Z" stroke="black" stroke-width="28.75" stroke-linecap="round" stroke-linejoin="round"/>
</svg>
