<svg width="380" height="343" viewBox="0 0 380 343" fill="none" xmlns="http://www.w3.org/2000/svg">
<path d="M306.211 72.6146C295.597 85.6468 268.35 95.6215 263.395 76.9923C258.44 58.363 248.403 47.2083 259.017 34.176C269.632 21.1438 283.46 26.4076 301.834 29.7984C320.207 33.1891 316.826 59.5824 306.211 72.6146Z" stroke="black" stroke-width="19.1758"/>
<path d="M231.436 144.009C230.462 134.707 239.677 127.445 248.345 130.961L343.262 169.458C352.975 173.397 353.42 187.127 344.506 192.64C308.441 214.947 296.119 240.999 306.525 296.122C308.366 305.873 298.787 314.262 289.591 310.533L196.736 272.871C187.111 268.968 186.526 255.339 195.051 249.406C228.045 226.446 237.089 197.997 231.436 144.009Z" stroke="black" stroke-width="25.9088"/>
<path d="M113.198 69.7774C109.768 68.2454 107.912 62.1554 110.966 59.9683L137.258 41.1419C140.659 38.7063 145.758 43.5659 144.445 47.5379C139.183 63.4561 150.71 72.0484 187.576 81.6416C190.635 82.4374 191.446 86.4643 188.877 88.3042L144.511 120.073C142.32 121.642 139.236 120.395 138.675 117.76C132.721 89.8262 124.695 74.9126 113.198 69.7774Z" stroke="black" stroke-width="22.6841"/>
<path d="M156.39 201.919C162.376 204.983 162.646 213.44 156.866 216.878L134.559 230.149C132.38 231.445 130.889 233.641 130.488 236.144L126.382 261.773C125.318 268.413 117.358 271.283 112.302 266.848L92.7878 249.734C90.8818 248.063 88.3324 247.323 85.8278 247.715L60.1844 251.73C53.5402 252.77 48.3516 246.086 51.0064 239.907L61.2528 216.06C62.2536 213.73 62.1691 211.077 61.0223 208.816L49.2801 185.669C46.2377 179.671 50.9908 172.671 57.6877 173.286L83.5345 175.662C86.0589 175.894 88.5562 174.994 90.3519 173.204L108.738 154.884C113.502 150.137 121.628 152.494 123.112 159.054L128.84 184.37C129.4 186.842 131.028 188.939 133.284 190.094L156.39 201.919Z" stroke="black" stroke-width="26.263"/>
</svg>
