<svg width="159" height="60" viewBox="0 0 159 60" fill="none" xmlns="http://www.w3.org/2000/svg">
<path d="M19.1557 23.0553H24.3278V47H19.1557V43.9351C17.5914 46.3934 15.1171 47.6226 11.7329 47.6226C8.98724 47.6226 6.76836 46.7446 5.07627 44.9886C3.38418 43.2327 2.53814 40.8223 2.53814 37.7574V23.0553H7.71019V37.2306C7.71019 39.0184 8.18908 40.3913 9.14687 41.3491C10.1047 42.3068 11.4136 42.7857 13.0738 42.7857C14.8936 42.7857 16.3622 42.227 17.4796 41.1096C18.597 39.9603 19.1557 38.2203 19.1557 35.8897V23.0553ZM43.9284 22.4328C47.2168 22.4328 50.0263 23.6619 52.3569 26.1202C54.6875 28.5466 55.8528 31.5158 55.8528 35.0277C55.8528 38.5715 54.6875 41.5566 52.3569 43.983C50.0263 46.4094 47.2168 47.6226 43.9284 47.6226C40.2888 47.6226 37.4952 46.2817 35.5477 43.5999V56.5779H30.3757V23.0553H35.5477V26.5034C37.4952 23.7896 40.2888 22.4328 43.9284 22.4328ZM37.7028 40.5349C39.1394 41.9716 40.9433 42.69 43.1143 42.69C45.2853 42.69 47.0891 41.9716 48.5258 40.5349C49.9624 39.0663 50.6808 37.2306 50.6808 35.0277C50.6808 32.8247 49.9624 31.005 48.5258 29.5683C47.0891 28.0997 45.2853 27.3654 43.1143 27.3654C40.9433 27.3654 39.1394 28.0997 37.7028 29.5683C36.2661 31.005 35.5477 32.8247 35.5477 35.0277C35.5477 37.2306 36.2661 39.0663 37.7028 40.5349Z" fill="black"/>
<path d="M73.3268 20.1341C70.5812 19.9425 69.2084 20.9163 69.2084 23.0553H73.3268V30.6697H69.2084V47H61.2587V30.6697H58.2417V23.0553H61.2587C61.2587 19.6073 62.2644 16.9734 64.2758 15.1536C66.319 13.3338 69.3361 12.5356 73.3268 12.7591V20.1341ZM90.8102 23.0553H98.7598V47H90.8102V44.6055C89.3735 46.6488 87.1546 47.6705 84.1536 47.6705C81.5676 47.6705 79.4445 46.7925 77.7843 45.0365C76.1561 43.2487 75.3419 40.6946 75.3419 37.3742V23.0553H83.2916V36.3686C83.2916 37.6137 83.6108 38.5555 84.2494 39.194C84.9198 39.8326 85.7978 40.1518 86.8833 40.1518C88.1284 40.1518 89.0862 39.7847 89.7566 39.0504C90.459 38.2841 90.8102 37.1986 90.8102 35.7939V23.0553ZM117.968 22.3849C120.554 22.3849 122.661 23.2788 124.29 25.0667C125.95 26.8226 126.78 29.3608 126.78 32.6811V47H118.83V33.6868C118.83 32.4416 118.495 31.4998 117.825 30.8613C117.186 30.2228 116.324 29.9035 115.239 29.9035C113.994 29.9035 113.02 30.2866 112.317 31.0528C111.647 31.7871 111.312 32.8567 111.312 34.2614V47H103.362V23.0553H111.312V25.4498C112.748 23.4065 114.967 22.3849 117.968 22.3849ZM147.953 13.4774H155.903V47H147.953V44.7971C146.325 46.7127 144.058 47.6705 141.153 47.6705C137.96 47.6705 135.278 46.4732 133.107 44.0787C130.968 41.6524 129.899 38.6353 129.899 35.0277C129.899 31.42 130.968 28.4189 133.107 26.0245C135.278 23.5981 137.96 22.3849 141.153 22.3849C144.058 22.3849 146.325 23.3427 147.953 25.2582V13.4774ZM139.285 38.8109C140.211 39.7687 141.424 40.2476 142.925 40.2476C144.425 40.2476 145.638 39.7687 146.564 38.8109C147.49 37.8531 147.953 36.592 147.953 35.0277C147.953 33.4633 147.49 32.2022 146.564 31.2444C145.638 30.2866 144.425 29.8077 142.925 29.8077C141.424 29.8077 140.211 30.2866 139.285 31.2444C138.359 32.2022 137.896 33.4633 137.896 35.0277C137.896 36.592 138.359 37.8531 139.285 38.8109Z" fill="url(#paint0_linear_49_291)"/>
<defs>
<linearGradient id="paint0_linear_49_291" x1="36.2278" y1="18.1" x2="175.527" y2="49.044" gradientUnits="userSpaceOnUse">
<stop offset="0.25" stop-color="#19DADA"/>
<stop offset="1" stop-color="#2C3BBC"/>
</linearGradient>
</defs>
</svg>
