<svg width="344" height="344" viewBox="0 0 344 344" fill="none" xmlns="http://www.w3.org/2000/svg">
<path d="M272.333 143.333V57.3334M229.333 100.333H315.333M229.333 301V283.8C229.333 259.718 229.333 247.677 224.647 238.478C220.524 230.387 213.946 223.809 205.855 219.687C196.657 215 184.616 215 160.533 215H97.4667C73.3845 215 61.3434 215 52.1452 219.687C44.0542 223.809 37.476 230.387 33.3535 238.478C28.6667 247.677 28.6667 259.718 28.6667 283.8V301M179.167 107.5C179.167 135.206 156.706 157.667 129 157.667C101.294 157.667 78.8334 135.206 78.8334 107.5C78.8334 79.7938 101.294 57.3334 129 57.3334C156.706 57.3334 179.167 79.7938 179.167 107.5Z" stroke="black" stroke-width="28.6667" stroke-linecap="round" stroke-linejoin="round"/>
</svg>
